<svg width="200" height="200" viewBox="0 0 200 200" fill="none" xmlns="http://www.w3.org/2000/svg">
    <g clip-path="url(#clip0_103_17)">
        <rect width="200" height="200" fill="#007A62"/>
        <g filter="url(#filter0_d_103_17)">
            <path d="M97 80.2254V137.851C97 140.116 94.7347 141.626 92.6581 140.745C85.0444 137.474 75.1021 134.454 68.1803 133.574L66.9847 133.448C63.1462 132.944 60 129.358 60 125.458V77.0168C60 72.2356 63.9014 68.6498 68.6838 69.0273C76.5495 69.6564 88.191 73.4311 95.4904 77.5832C96.4343 78.0235 97 79.093 97 80.2254Z" fill="#1ABC9C"/>
        </g>
        <g filter="url(#filter1_d_103_17)">
            <path d="M141 76.9412V125.286C141 129.246 137.769 132.886 133.827 133.397L132.469 133.525C125.425 134.483 115.279 137.484 107.459 140.741C105.327 141.636 103 140.103 103 137.804V79.3678C103 78.2183 103.582 77.1328 104.616 76.558C112.112 72.4068 123.81 68.7025 131.759 68H132.017C136.993 68.0639 141 72.0236 141 76.9412Z" fill="#1ABC9C"/>
        </g>
        <mask id="mask0_103_17" style="mask-type:alpha" maskUnits="userSpaceOnUse" x="60" y="69" width="37" height="72">
            <path d="M97 80.2254V137.851C97 140.116 94.7347 141.626 92.6581 140.745C85.0444 137.474 75.1021 134.454 68.1803 133.574L66.9847 133.448C63.1462 132.944 60 129.358 60 125.458V77.0168C60 72.2356 63.9014 68.6498 68.6838 69.0273C76.5495 69.6564 88.191 73.4311 95.4904 77.5832C96.4343 78.0235 97 79.093 97 80.2254Z" fill="#1ABC9C"/>
        </mask>
        <g mask="url(#mask0_103_17)">
            <g filter="url(#filter2_d_103_17)">
                <rect x="87" y="59" width="4" height="48" fill="#E74C3C"/>
            </g>
        </g>
    </g>
    <defs>
        <filter id="filter0_d_103_17" x="56" y="69" width="45" height="80" filterUnits="userSpaceOnUse" color-interpolation-filters="sRGB">
            <feFlood flood-opacity="0" result="BackgroundImageFix"/>
            <feColorMatrix in="SourceAlpha" type="matrix" values="0 0 0 0 0 0 0 0 0 0 0 0 0 0 0 0 0 0 127 0" result="hardAlpha"/>
            <feOffset dy="4"/>
            <feGaussianBlur stdDeviation="2"/>
            <feComposite in2="hardAlpha" operator="out"/>
            <feColorMatrix type="matrix" values="0 0 0 0 0 0 0 0 0 0 0 0 0 0 0 0 0 0 0.25 0"/>
            <feBlend mode="normal" in2="BackgroundImageFix" result="effect1_dropShadow_103_17"/>
            <feBlend mode="normal" in="SourceGraphic" in2="effect1_dropShadow_103_17" result="shape"/>
        </filter>
        <filter id="filter1_d_103_17" x="99" y="68" width="46" height="81" filterUnits="userSpaceOnUse" color-interpolation-filters="sRGB">
            <feFlood flood-opacity="0" result="BackgroundImageFix"/>
            <feColorMatrix in="SourceAlpha" type="matrix" values="0 0 0 0 0 0 0 0 0 0 0 0 0 0 0 0 0 0 127 0" result="hardAlpha"/>
            <feOffset dy="4"/>
            <feGaussianBlur stdDeviation="2"/>
            <feComposite in2="hardAlpha" operator="out"/>
            <feColorMatrix type="matrix" values="0 0 0 0 0 0 0 0 0 0 0 0 0 0 0 0 0 0 0.25 0"/>
            <feBlend mode="normal" in2="BackgroundImageFix" result="effect1_dropShadow_103_17"/>
            <feBlend mode="normal" in="SourceGraphic" in2="effect1_dropShadow_103_17" result="shape"/>
        </filter>
        <filter id="filter2_d_103_17" x="83" y="56" width="12" height="56" filterUnits="userSpaceOnUse" color-interpolation-filters="sRGB">
            <feFlood flood-opacity="0" result="BackgroundImageFix"/>
            <feColorMatrix in="SourceAlpha" type="matrix" values="0 0 0 0 0 0 0 0 0 0 0 0 0 0 0 0 0 0 127 0" result="hardAlpha"/>
            <feOffset dy="1"/>
            <feGaussianBlur stdDeviation="2"/>
            <feComposite in2="hardAlpha" operator="out"/>
            <feColorMatrix type="matrix" values="0 0 0 0 0 0 0 0 0 0 0 0 0 0 0 0 0 0 0.25 0"/>
            <feBlend mode="normal" in2="BackgroundImageFix" result="effect1_dropShadow_103_17"/>
            <feBlend mode="normal" in="SourceGraphic" in2="effect1_dropShadow_103_17" result="shape"/>
        </filter>
        <clipPath id="clip0_103_17">
            <rect width="200" height="200" fill="white"/>
        </clipPath>
    </defs>
</svg>
